<svg width="30" height="32" viewBox="0 0 30 32" fill="none" xmlns="http://www.w3.org/2000/svg">
<path d="M30 6.61268C28.8844 7.10205 27.6956 7.42643 26.4563 7.58393C27.7313 6.82268 28.7044 5.62643 29.1619 4.18455C27.9731 4.8933 26.6606 5.39393 25.2619 5.6733C24.1331 4.47143 22.5244 3.72705 20.7694 3.72705C17.3644 3.72705 14.6231 6.4908 14.6231 9.87893C14.6231 10.3664 14.6644 10.8352 14.7656 11.2814C9.6525 11.0321 5.12812 8.58143 2.08875 4.8483C1.55813 5.76893 1.24688 6.82268 1.24688 7.95705C1.24688 10.0871 2.34375 11.9752 3.97875 13.0683C2.99062 13.0496 2.02125 12.7627 1.2 12.3108C1.2 12.3296 1.2 12.3539 1.2 12.3783C1.2 15.3671 3.33188 17.8496 6.1275 18.4214C5.62688 18.5583 5.08125 18.6239 4.515 18.6239C4.12125 18.6239 3.72375 18.6014 3.35063 18.5189C4.1475 20.9545 6.40875 22.7452 9.0975 22.8033C7.005 24.4402 4.34812 25.4264 1.47188 25.4264C0.9675 25.4264 0.48375 25.4039 0 25.3421C2.72438 27.0989 5.95313 28.1021 9.435 28.1021C20.7525 28.1021 26.94 18.7271 26.94 10.6008C26.94 10.3289 26.9306 10.0664 26.9175 9.8058C28.1381 8.93955 29.1637 7.85768 30 6.61268Z" fill="white"/>
</svg>
