<svg width="30" height="32" viewBox="0 0 30 32" fill="none" xmlns="http://www.w3.org/2000/svg">
<path fill-rule="evenodd" clip-rule="evenodd" d="M9.375 1H20.625C25.8019 1 30 5.19812 30 10.375V21.625C30 26.8019 25.8019 31 20.625 31H9.375C4.19812 31 0 26.8019 0 21.625V10.375C0 5.19812 4.19812 1 9.375 1ZM20.6252 28.1875C24.2439 28.1875 27.1877 25.2437 27.1877 21.625V10.375C27.1877 6.75625 24.2439 3.8125 20.6252 3.8125H9.37518C5.75643 3.8125 2.81268 6.75625 2.81268 10.375V21.625C2.81268 25.2437 5.75643 28.1875 9.37518 28.1875H20.6252Z" fill="white"/>
<path fill-rule="evenodd" clip-rule="evenodd" d="M7.50018 16C7.50018 11.8581 10.8583 8.5 15.0002 8.5C19.1421 8.5 22.5002 11.8581 22.5002 16C22.5002 20.1419 19.1421 23.5 15.0002 23.5C10.8583 23.5 7.50018 20.1419 7.50018 16ZM10.3128 16C10.3128 18.5837 12.4165 20.6875 15.0003 20.6875C17.584 20.6875 19.6878 18.5837 19.6878 16C19.6878 13.4144 17.584 11.3125 15.0003 11.3125C12.4165 11.3125 10.3128 13.4144 10.3128 16Z" fill="white"/>
<circle cx="23.0626" cy="7.93712" r="0.999375" fill="white"/>
</svg>
